<?xml version="1.0" encoding="utf-8"?>
<!--
   Licensed to the Apache Software Foundation (ASF) under one
   or more contributor license agreements.  See the NOTICE file
   distributed with this work for additional information
   regarding copyright ownership.  The ASF licenses this file
   to you under the Apache License, Version 2.0 (the
   "License"); you may not use this file except in compliance
   with the License.  You may obtain a copy of the License at

     http://www.apache.org/licenses/LICENSE-2.0

   Unless required by applicable law or agreed to in writing,
   software distributed under the License is distributed on an
   "AS IS" BASIS, WITHOUT WARRANTIES OR CONDITIONS OF ANY
   KIND, either express or implied.  See the License for the
   specific language governing permissions and limitations
   under the License.
-->
<!DOCTYPE svg PUBLIC "-//W3C//DTD SVG 1.1//EN" "http://www.w3.org/Graphics/SVG/1.1/DTD/svg11.dtd">
<svg version="1.1" xmlns="http://www.w3.org/2000/svg" xmlns:xlink="http://www.w3.org/1999/xlink" x="0px" y="0px"
	 viewBox="0 0 496.711 350.535" xml:space="preserve">
<g>
	<path fill="#6E9244" d="M35.696,151.511h26.396c-4.127-3.129-9.725-7.471-9.771-11.101c-0.022-0.832-0.048-1.993-0.118-3.393
		c-3.201,1.826-15.321,4.34-22.627-2.182c-7.446-6.666-8.729-15.017-6.379-18.951c2.348-3.914,8.87-4.008,8.87-4.008l0.31-3.131
		c0,0-9.892-5.173-15.844-17.576C10.58,78.766,6.453,63.87,6.453,63.87s6.9-4.363,16.674-2.822c9.771,1.52,14.35,5.504,16.696,4.697
		C42.955,54.288,70.421,3.413,75.046-0.003C89.633,6.281,89.941,43.307,90.107,46.13s0,23.695,0,26.518
		c0,2.823,1.873,4.15,5.812,4.555c3.914,0.402,30.785-16.315,37.546-18.522c0,23.767-14.8,45.256-22.318,53.508
		c-4.625,8.398-1.162,10.011-0.096,13.947c1.066,3.938,1.114,12.547,0.498,14.185c-4.127,1.162-21.252,1.639-27.537-0.521
		c-6.284-2.158-6.546-5.621-8.441-7.021c-0.166-0.116-11.504-1.541-18.855,1.328l-0.143,6.381
		c4.222,3.892,7.377,5.455,10.673,11.007h87.496l31.145,90.27l32.921-90.27h98.548l34.893,93.332l30.978-93.332h50.709
		c0.285-12.265,9.867-10.744,12.713-10.814c-0.616-0.948-3.297-2.895-2.396-5.812c0.902-2.896,7.807-1.99,7.807-1.99
		s2.252-5.361,3.318-7.875c1.065-2.516,5.146-3.107,5.146-3.107s-2.467,9.894,1.897,9.894h20.658c0,0-7.565,7.279-10.77,7.853
		c-3.203,0.592-9.321,3.793-7.424,4.957c1.896,1.162,6.995,4.602,6.115,6.901c-0.875,2.302-13.256-2.303-13.256,0
		c0,2.302-7.521,5.857-7.142,2.562c0.381-3.297,0.854-9.652-0.643-10.887c-1.518-1.232-5.717-0.9-9.105-0.476
		c-3.395,0.428-3.203,8.801-3.203,8.801h6.595l-2.086,4.979c17.574,0.688,20.16,18.287,20.896,16.604
		c0.829-1.922,3.745-8.159,4.34-8.871c2.205-2.682,7.944-2.348,9.319-1.327c2.351,1.729,0.403,5.432,5.054,8.157
		c7.756,3.345,13.446,2.351,14.941,4.625c-1.33,3.513-7.398,11.338-10.98,12.854c-2.634,1.115-2.896,5.289-2.421,6.264
		c5.029,10.578,3.728,17.764,2.277,27.418c-12.263-9.416-20.873-20.113-24.81-18.691c-3.938,1.425-18.572,2.517-18.572,2.517
		s3.818,13.26,2.088,19.662c-1.092,4.031,3.843,3.133,3.843,3.133s4.293-5.075,7.067-6.549c2.774-1.445,6.119-2.396,10.603-1.279
		c4.556,1.564,5.339,9.062,9.679,11.572c3.201,1.875,17.268,17.125,17.268,17.125s-6.809,3.396-12.567,3.654
		c-5.767,0.26-14.043-0.05-16.648,0.688c-3.727,1.045-7.662,29.224-14.066,35.271c-7.825-9.252-9.227-21.8-12.002-33.373
		c-0.877-3.629-3.58-4.554-4.885-4.554s-4.625,2.017-10.674,4.175c-6.05,2.184-14.655-0.9-14.655-0.9l16.48-21.25
		c0,0-1.562-9.084-0.427-12.073c5.435-5.193,12.855-1.232,12.855-1.232l6.664,6.166c0.235-7.445-2.42-16.246-7.709-20.895
		c-3.486-3.062-8.562-4.06-11.621-4.365l-46.203,109.813c-21.156,50.281-76.16,40.584-110.955,35.316l-4.149-35.222
		c13.211,1.685,51.657,8.871,58.487-17.194l-53.53-109.814l-56.282,109.814h-51.775l-61.479-122.08v35.77
		c0.973,0.068,1.729,0.427,2.373,0.996c1.562,1.425,8.633,6.5,10.032,8.541c3.746,5.404,9.153,4.72,8.323,9.513
		c-2.11,3.059-5.336,1.09-6.735,0.473c-1.423-0.617-6.119-9.012-7.685-10.271c-1.281-1.021-4.033-4.08-6.285-4.315v18.762
		c9.535,9.629,22.438,22.318,24.002,23.576c2.515,2.039,5.953,4.078,8.468,4.695c2.515,0.616,5.812,0.78,6.734,1.729
		c3.297,3.297,2.135,5.979-1.423,6.285c-1.874,0.168-12.404-1.803-14.111-4.008c-1.729-2.205-12.713-14.519-12.713-14.519
		s-7.067-7.992-9.56-9.416c-0.451-0.26-0.949-0.688-1.424-1.229v55.479H49.293c0.783,1.611,2.586,5.691,1.092,5.834
		c-1.875,0.166-2.987-0.096-4.08-2.275c-0.332-0.664-0.545-2.02-0.664-3.534h-9.844v-57.47h-0.022
		c-0.401,0.117-0.782,0.234-1.14,0.354c-2.939,0.098-5.812-0.31-7.377-0.166c-3.485,0.354-15.393,12.664-17.338,16.152
		c-0.783,1.424-3.771,4.243-5.336,4.694c-1.563,0.476-5.502-2.516-4.388-4.555c1.091-2.041,5.953-4.695,7.065-5.027
		c1.093-0.311,2.517-4.391,4.246-5.952c1.732-1.564,11.147-7.853,12.713-9.728c1.565-1.873,10.199-1.729,10.199-1.729l1.424,0.143
		v-25.76c-0.567-0.641-0.974-1.09-1.092-1.281c-1.256-1.969-2.752,1.188-2.275,5.338c0.477,4.148-1.092,11.717-1.092,13.424
		c0,2.207,5.74,5.408,2.351,7.425c-0.688,0.403-3.394-0.213-5.573-4.293c-2.207-4.078,0-19.306,0-19.306s0.426-8.729,4.056-9.037
		c1.686-0.145,2.87-0.145,3.651-0.071v-45.443L35.696,151.511z M440.661,160.026l-14.588,34.627
		c8.684,3.133,15.516,10.293,15.562,10.271c1.803-0.83,2.584-1.303,2.584-3.486c0-2.205,1.092-5.904,1.756-9.463
		c1.094-5.787-2.467-4.77-3.152-9.463c-0.996-6.879,9.152-10.01,13.066-7.496c1.021,0.641,0.569,2.205,1.686,2.846
		c1.092,0.617,2.869,0.332,3.227-0.236c1.826-3.084,0.095-3.368-1.896-7.045c-3.561-11.241-14.896-10.08-18.268-10.555H440.661
		L440.661,160.026z"/>
	<path fill="#FFFFFF" d="M35.72,196.954c0.854,0.07,1.21,0.166,1.21,0.166s1.257,0.168,4.08,3.914
		c2.823,3.771,4.08,7.142,6.595,9.894c2.516,2.752,4.936,1.021,4.936,1.021s-2.111-11.599-0.546-16.011
		c1.563-4.387,3.104-5.336,4.672-6.594c1.565-1.258,3.89-3.272,1.687-5.312c-2.207-2.041-3.867-11.388-0.877-17.979
		c2.986-6.594,9.013-8.42,9.013-8.42s2.134-0.736-1.21-3.629c-0.783-0.688-1.945-1.541-3.229-2.539h5.146l2.704,3.203
		c8.752-4.224,17.883-0.382,17.883,8.254c1.257,0.946,7.638,3.012,10.604,3.012h15.367c1.566,0,15.371-7.971,17.41-8.113
		c2.039-0.166,2.11-3.483,9.652-2.465s7.447-0.262,8.539,1.826c1.091,2.108-1.803,4.223-3.534,4.86
		c-1.729,0.617-11.385-0.354-12.95-0.354c-1.562,0-13.188,5.764-16.861,7.565c-3.678,1.804-11.527,2.441-14.353,0.947
		c-2.821-1.494-8.491-2.606-8.491-2.606l-4.908-1.4c0,0-0.236,10.604-2.109,15.019c-1.897,4.387-10.127,10.268-12.619,10.268
		c-2.514,0-1.352,1.994-1.352,1.994c2.537,5.027,1.091,11.787-5.076,16.887c2.585,7.162,14.16-12.76,17.102-12.76
		c2.656,0,3.201,1.209,2.774,4.031l-9.914,10.861c0,0-3.416,2.274-6.119,2.11c-0.783-0.047-1.494,1.162-1.257,2.894
		c0.309,2.205-0.402,4.012,0.854,5.102c1.26,1.092,6.168-1.613,7.758-3.486c1.563-1.873,9.105-8.041,13.377-10.127
		c2.515-1.209,4.34-1.684,5.738-1.588l0.024,4.935c-0.521-0.049-1.044,0.049-1.494,0.381c-2.349,1.73-8.847,6.521-8.847,7.445
		c0,0.354,2.963,2.351,10.314,10.91v7.143c-2.135-2.371-4.389-6.832-6.167-7.854c-2.183-1.259-4.315-5.336-4.935-6.736
		c-0.615-1.422-2.987-0.615-3.463,1.094c-0.477,1.73-1.162,3.463-2.608,5.765c-3.463,5.551-9.983,6.047-10.958,7.021
		c-1.091,1.092,2.585,3.676,3.534,4.791c0.949,1.092,8.373,3.062,10.91,12.478c2.515,9.416,0.022,16.555-1.375,20.325
		c-3.062,8.185-8.608,8.896-18.287,4.058c-1.115-0.57-9.132-9.466-10.839-13.402c-1.73-3.912,0.166-16.697,0.166-16.697
		s2.986-4.076,1.562-4.242c-0.592-0.072-0.143-1.826-1.707-1.115c-2.16,0.996-6.355,4.554-6.355,4.554l-0.236,32.473
		c0,0,1.873-0.098,2.205,2.396c0.309,2.468,0,9.961,0,9.961l0.332,0.664H45.54c-0.285-3.51-0.119-8.041-0.119-8.041
		s-1.896-3.2-3.012-4.604c-1.092-1.422-1.066-30.287,0.498-34.533c1.564-4.244,2.656-5.881,4.861-5.574
		c2.206,0.312,5.502-0.166,5.502-0.166s0.783-10.741-0.477-11.383c-1.256-0.617-6.428,2.822-7.209,4.078
		c-0.711,1.139-6.07,1.66-9.916,2.775l0.072-5.767l3.415,0.332c0,0,3.676-2.514,5.574-3.629c1.874-1.09,7.21-0.897,7.685-2.562
		c0.477-1.662,0.545-6.998,0.166-7.827c-0.4-0.83-2.562,1.305-4.08-0.119l-12.784-11.953v-7.809h0.023h-0.021L35.72,196.954
		L35.72,196.954z M52.18,136.687c-0.31-6.664-1.021-17.739-1.139-18.643c-0.166-1.091-6.593-8.941-6.593-11.123
		c0-2.207-1.709-6.429,2.537-5.17c4.246,1.258,6.595,5.502,6.595,5.502s3.534,5.952,3.534,7.52c0,1.043-0.236,11.884-0.403,19.164
		l-4.529,2.775v-0.025H52.18z"/>
</g>
<g>
	<path fill="#6E9244" stroke="#6E9243" stroke-miterlimit="10" d="M389.699,316.176h18.773v4.547h-6.68v14.555h-5.508v-14.555
		h-6.586V316.176z M410.652,316.176h8.367l2.648,10.43l2.789-10.43h8.109v19.102h-5.18v-13.5l-3.586,13.5h-4.336l-3.539-13.5v13.5
		h-5.273V316.176z"/>
</g>
</svg>
