<?xml version="1.0" encoding="UTF-8" standalone="no"?>
<!--
   Licensed to the Apache Software Foundation (ASF) under one
   or more contributor license agreements.  See the NOTICE file
   distributed with this work for additional information
   regarding copyright ownership.  The ASF licenses this file
   to you under the Apache License, Version 2.0 (the
   "License"); you may not use this file except in compliance
   with the License.  You may obtain a copy of the License at

     https://www.apache.org/licenses/LICENSE-2.0

   Unless required by applicable law or agreed to in writing,
   software distributed under the License is distributed on an
   "AS IS" BASIS, WITHOUT WARRANTIES OR CONDITIONS OF ANY
   KIND, either express or implied.  See the License for the
   specific language governing permissions and limitations
   under the License.
-->
<svg xmlns:rdf="http://www.w3.org/1999/02/22-rdf-syntax-ns#" xmlns="http://www.w3.org/2000/svg" enable-background="new 0 0 697.32 518.74" xml:space="preserve" viewBox="0 0 638.90594 148.79584" version="1.1" y="0px" x="0px" xmlns:cc="http://creativecommons.org/ns#" xmlns:dc="http://purl.org/dc/elements/1.1/">
  <g fill="#010101">
    <polygon points="604.83 20.641 604.83 36.572 627.9 36.572 627.9 39.274 604.83 39.274 604.83 55.493 630.77 55.493 630.77 58.195 601.84 58.195 601.84 17.938 630.48 17.938 630.48 20.641" transform="translate(-.000078826 -.0012690)"/>
    <polygon points="538.58 36.63 538.58 17.938 541.57 17.938 541.57 58.195 538.58 58.195 538.58 39.332 512.81 39.332 512.81 58.195 509.82 58.195 509.82 17.938 512.81 17.938 512.81 36.63" transform="translate(-.000078826 -.0012690)"/>
    <path d="m437.3 58.886c-2.877 0-5.539-0.537-7.994-1.61-2.453-1.073-4.572-2.54-6.355-4.4-1.783-1.859-3.172-4.054-4.17-6.585-0.996-2.53-1.494-5.232-1.494-8.108v-0.114c0-2.837 0.508-5.521 1.525-8.052 1.016-2.531 2.412-4.744 4.195-6.642s3.902-3.393 6.355-4.486c2.455-1.093 5.137-1.639 8.053-1.639 1.801 0 3.432 0.154 4.887 0.46 1.459 0.309 2.809 0.749 4.055 1.323 1.246 0.575 2.416 1.256 3.51 2.041 1.094 0.787 2.156 1.66 3.191 2.617l-2.127 2.185c-0.883-0.844-1.803-1.628-2.762-2.357-0.957-0.729-1.984-1.352-3.076-1.869-1.094-0.519-2.281-0.929-3.566-1.236-1.283-0.308-2.674-0.461-4.17-0.461-2.416 0-4.658 0.461-6.727 1.381-2.07 0.919-3.863 2.195-5.379 3.824-1.514 1.63-2.703 3.539-3.564 5.722-0.865 2.187-1.295 4.543-1.295 7.074v0.115c0 2.531 0.441 4.897 1.322 7.102 0.883 2.206 2.08 4.123 3.594 5.752 1.516 1.63 3.307 2.912 5.377 3.853s4.312 1.409 6.729 1.409c2.914 0 5.443-0.535 7.592-1.609 2.146-1.073 4.236-2.626 6.27-4.658l2.012 1.955c-1.074 1.035-2.176 1.984-3.307 2.847s-2.338 1.602-3.623 2.215c-1.287 0.611-2.674 1.093-4.17 1.437-1.496 0.341-3.127 0.514-4.888 0.514z"/>
    <path d="m340.63 17.649h2.876l18.75 40.545h-3.277l-5.119-11.271h-23.753l-5.119 11.271h-3.105l18.747-40.545zm11.962 26.571-10.582-23.291-10.638 23.291h21.22z"/>
    <path d="m238.6 17.937h14.607c2.224 0 4.246 0.277 6.067 0.834s3.395 1.36 4.715 2.415c1.324 1.055 2.35 2.339 3.077 3.854 0.729 1.516 1.094 3.249 1.094 5.204v0.114c0 2.109-0.422 3.969-1.265 5.578-0.844 1.611-1.985 2.953-3.423 4.026s-3.104 1.879-5.003 2.415c-1.898 0.537-3.899 0.806-6.011 0.806h-10.868v15.011h-2.99v-40.257zm14.032 22.544c1.879 0 3.585-0.229 5.119-0.689 1.533-0.47 2.847-1.132 3.939-2.004 1.095-0.862 1.946-1.917 2.561-3.154 0.613-1.227 0.92-2.597 0.92-4.103v-0.114c0-1.62-0.297-3.039-0.893-4.256-0.593-1.209-1.428-2.225-2.501-3.037-1.073-0.808-2.358-1.42-3.854-1.852-1.493-0.422-3.145-0.633-4.945-0.633h-11.387v19.842h11.041z"/>
    <path d="m160.16 17.649h2.875l18.75 40.545h-3.278l-5.119-11.271h-23.752l-5.119 11.271h-3.106l18.749-40.545zm11.962 26.571-10.582-23.291-10.64 23.291h21.222z"/>
    <path d="m636.2 95.651c0 9.738-4.248 15.873-12.748 18.406l15.451 21.445h-12.666l-14.1-19.84h-13.086v19.84h-9.963v-59.016h21.953c9.006 0 15.449 1.521 19.334 4.56 3.884 3.04 5.825 7.908 5.825 14.605zm-24.738 10.978c5.629 0 9.457-0.872 11.482-2.619 2.027-1.742 3.039-4.543 3.039-8.4 0-3.854-1.039-6.499-3.121-7.935-2.084-1.437-5.799-2.154-11.146-2.154h-12.664v21.108h12.41z"/>
    <path d="m569.87 127.35c-5.965 5.825-13.34 8.738-22.121 8.738-8.779 0-16.154-2.912-22.121-8.738-5.967-5.825-8.949-13.087-8.949-21.784 0-8.696 2.982-15.956 8.949-21.783 5.967-5.823 13.342-8.738 22.121-8.738 8.781 0 16.156 2.912 22.121 8.738 5.967 5.825 8.951 13.087 8.951 21.783 0 8.698-2.984 15.959-8.951 21.784zm-7.303-36.937c-4.023-4.166-8.963-6.248-14.818-6.248-5.854 0-10.791 2.082-14.818 6.248-4.021 4.165-6.037 9.217-6.037 15.154 0 5.939 2.014 10.991 6.037 15.157 4.025 4.165 8.965 6.248 14.818 6.248 5.855 0 10.793-2.083 14.818-6.248 4.023-4.166 6.035-9.218 6.035-15.157 0-5.937-2.011-10.989-6.035-15.154z"/>
    <polygon points="485.73 85.605 467.83 85.605 467.83 76.487 513.59 76.487 513.59 85.605 495.7 85.605 495.7 135.5 485.73 135.5" transform="translate(-.000078826 -.0012690)"/>
    <path d="m426.07 122.08-5.91 13.424h-10.637l26.006-59.017h10.637l26.006 59.017h-10.639l-5.912-13.424h-29.551zm25.498-9.203-10.722-24.314-10.723 24.314h21.445z"/>
    <path d="m386.93 135.5h-25.836v-59.017h22.967c3.996 0 7.443 0.479 10.342 1.437 2.896 0.957 5.049 2.251 6.457 3.885 2.701 3.039 4.053 6.474 4.053 10.301 0 4.614-1.463 8.048-4.391 10.3-1.07 0.788-1.801 1.28-2.195 1.477-0.395 0.198-1.098 0.522-2.109 0.973 3.658 0.789 6.572 2.435 8.74 4.938 2.166 2.505 3.248 5.615 3.248 9.33 0 4.108-1.406 7.739-4.221 10.892-3.321 3.654-9.007 5.484-17.055 5.484zm-15.873-9.203h15.621c3.658 0 6.459-0.576 8.4-1.729 1.941-1.154 2.912-3.336 2.912-6.545 0-5.233-4.191-7.851-12.578-7.851h-14.355v16.125zm0-25.33h12.666c7.205 0 10.807-2.446 10.807-7.345 0-2.812-0.873-4.839-2.617-6.078-1.744-1.238-4.447-1.858-8.105-1.858h-12.748v15.281h-0.003z"/>
    <path d="m311.82 121.99c2.701 3.152 6.359 4.728 10.976 4.728s8.275-1.575 10.977-4.728c2.702-3.152 4.053-7.431 4.053-12.833v-32.675h9.963v33.098c0 8.5-2.335 15.043-7.008 19.631-4.672 4.585-10.665 6.88-17.982 6.88-7.318 0-13.312-2.294-17.983-6.88-4.672-4.588-7.009-11.131-7.009-19.631v-33.098h9.963v32.675c-0.003 5.402 1.349 9.681 4.05 12.833z"/>
    <path d="m265.68 126.47c3.434 0 6.388-0.576 8.866-1.73 2.476-1.153 5.065-2.997 7.767-5.53l6.416 6.585c-6.247 6.923-13.833 10.384-22.753 10.384-8.922 0-16.323-2.87-22.205-8.611s-8.822-13.003-8.822-21.783 2.996-16.098 8.991-21.951c5.994-5.854 13.565-8.781 22.711-8.781s16.788 3.378 22.922 10.132l-6.332 6.924c-2.812-2.703-5.474-4.588-7.979-5.657-2.503-1.069-5.446-1.604-8.823-1.604-5.966 0-10.976 1.928-15.028 5.784-4.053 3.854-6.079 8.78-6.079 14.773 0 5.994 2.014 11.004 6.038 15.029 4.023 4.024 8.795 6.036 14.31 6.036z"/>
    <polygon points="213.87 135.5 180.44 92.445 180.44 135.5 170.48 135.5 170.48 76.487 180.44 76.487 214.71 120.56 214.71 76.487 224.68 76.487 224.68 135.5" transform="translate(-.000078826 -.0012690)"/>
    <rect height="59.017" width="9.962" y="76.486" x="146.45"/>
  </g>
  <linearGradient id="a" y2="446.93" gradientUnits="userSpaceOnUse" x2="139.38" gradientTransform="matrix(1 0 0 -1 -72.34 481.13)" y1="342.52" x1="119.54">
    <stop stop-color="#211C52" offset="0"/>
    <stop stop-color="#CB2128" offset=".5"/>
    <stop stop-color="#F89A20" offset="1"/>
  </linearGradient>
  <path fill="url(#a)" d="m60.645 20.391c-0.004-0.438-0.01-0.877-0.021-1.319 0.091 0.144 0.346 0.586 0.769 1.319h-0.748zm-15.88 46.21c-4.634 8.616-7.274 17.605-7.949 26.962-0.602 8.33 0.299 15.514 2.728 21.536 0.332 0.819 0.653 1.577 0.975 2.278-1.92-1.357-3.751-2.773-5.498-4.25-0.147-0.116-0.254-0.165-0.322-0.148 2.294 3.668 5.152 6.992 8.578 9.973 0.529 0.463 1.412 0.68 1.63 1.359 0.619 1.948-1.065 19.44 4.346 23.517 3.441 2.589 18.65-0.667 23.346-2.184 24.498-7.912 43.499-30.539 40.673-63.149-3.1-35.763-26.66-72.131-50.158-80.873-6.352-2.364-7.761-2.147-14.357 0.674-22.93 9.805-45.453 45.291-48.478 80.198-2.9061 33.546 17.276 56.526 42.786 63.786 0.689 0.197 1.356 0.378 2.004 0.549-0.657-1.358-1.195-2.9-1.631-4.53-26.719-7.946-41.665-31.636-39.253-59.469 2.306-26.608 20.14-65.826 46.108-76.934 5.429-2.318 5.942-2.649 11.447-0.601 26.655 9.914 45.274 50.485 47.618 77.535 2.507 28.92-13.8 53.254-42.002 60.223-2.836 0.7-5.296 1.163-7.599 1.394-7.308 0.734-9.849 2.027-11.189-5.583-2.952-16.784-0.72-47.158 6.583-58.812 0.059-0.846 0.01 0.703-0.54 2.026-0.254 0.594-0.417 0.957-0.488 1.144-4.374 10.02-6.814 39.086-4.733 44.606-0.602-1.978 0.478-6.143 2.039-6.997l0.895-0.626c4.897-3.527 8.064-9.07 11.604-16.088-0.062-0.098-0.176-0.086-0.341 0.033-1.651 1.382-3.355 2.622-5.106 3.719 3.986-4.187 7.467-9.533 10.45-16.046-0.081-0.118-0.219-0.097-0.415 0.057-1.178 1.063-2.377 2.063-3.601 3.002 5.006-9.063 9.414-19.562 9.876-31.562 0.229-7.766-1.192-15.249-4.265-22.396-1.06-2.443-2.538-5.363-4.444-8.809-2.817-5.081-4.34-7.832-4.583-8.231 0.126 11.012-1.816 19.964-5.825 26.783-1.034 1.812-2.869 4.45-5.521 7.91-2.462 3.228-4.269 5.899-5.388 8.019z"/>
</svg>